<svg xmlns="http://www.w3.org/2000/svg" width="22" height="14" viewBox="0 0 22 14">
    <g fill="none" fill-rule="evenodd">
        <g fill="#FFF" fill-rule="nonzero">
            <g>
                <g>
                    <path d="M247.32 19.324c.426-.432 1.116-.432 1.542 0l5.818 5.894c.197.2.303.456.318.716L255 26c0 .023 0 .045-.002.067-.015.26-.121.516-.318.715l-5.818 5.894c-.426.432-1.116.432-1.542 0-.427-.431-.427-1.131 0-1.563L251.379 27H234.1c-.567 0-1.034-.39-1.094-.891L233 26c0-.552.492-1 1.1-1h17.279l-4.06-4.113c-.395-.401-.423-1.033-.084-1.467z" transform="translate(-757 -42) translate(524 23)"/>
                </g>
            </g>
        </g>
    </g>
</svg>
