<?xml version="1.0" encoding="UTF-8"?>
<svg width="298px" height="64px" viewBox="0 0 298 64" version="1.1" xmlns="http://www.w3.org/2000/svg" xmlns:xlink="http://www.w3.org/1999/xlink">
    <title>32E2FF0B-DF7A-4BA3-8350-3721017A260D</title>
    <g id="Page-1" stroke="none" stroke-width="1" fill="none" fill-rule="evenodd">
        <g id="home" transform="translate(-83.000000, -15.000000)">
            <g id="subheader">
                <g id="logo" transform="translate(83.000000, 15.000000)">
                    <polygon id="Fill-2" fill="#FEFEFE" points="120 22.6324324 120 35.6324324 120 48.6324324 126 43.5626564 126 35.6324324 126 27.7022085"></polygon>
                    <polygon id="Fill-3" fill="#FEFEFE" points="151 48.6324324 151 35.6324324 151 22.6324324 145 27.7022085 145 35.6324324 145 43.5642562"></polygon>
                    <g id="Group-43" transform="translate(0.000000, 0.632432)">
                        <path d="M11.9368881,29.864925 C11.4100016,29.40505 10.7441205,29.1938 9.97156919,29.1938 L5.33949351,29.1938 L5.33949351,34.24105 L9.97156919,34.24105 C10.7441205,34.24105 11.3744449,33.992425 11.9013314,33.534175 C12.4298341,33.0418 12.7110557,32.4048 12.7110557,31.6638 C12.7110557,30.9228 12.4621584,30.32155 11.9368881,29.864925 M15.5879205,36.21705 C14.4290935,37.521925 12.9551043,38.19305 11.1643368,38.19305 L5.33949351,38.19305 L5.33949351,45.5348 L0.739742162,45.5348 L0.739742162,25.275925 L11.1643368,25.275925 C12.9551043,25.275925 14.3935368,25.87555 15.5523638,27.040675 C16.7095746,28.24155 17.3059584,29.7593 17.3059584,31.5598 C17.3059584,33.358675 16.7467476,34.91055 15.5879205,36.21705" id="Fill-4" fill="#FEFEFE"></path>
                        <path d="M30.5392135,29.864925 C30.0155595,29.40505 29.3480622,29.1938 28.5722784,29.1938 L23.9757595,29.1938 L23.9757595,34.24105 L28.5722784,34.24105 C29.3480622,34.24105 30.0155595,33.992425 30.5392135,33.534175 C31.0661,33.0418 31.3473216,32.4048 31.3473216,31.6638 C31.3473216,30.9228 31.0661,30.32155 30.5392135,29.864925 M34.9272405,35.22905 C34.2613595,36.3568 33.3821378,37.1693 32.224927,37.697425 L35.9099,45.5348 L30.7848784,45.5348 L27.3455703,38.19305 L23.9757595,38.19305 L23.9757595,45.5348 L19.3776243,45.5348 L19.3776243,25.275925 L29.8022189,25.275925 C31.5929865,25.275925 33.0314189,25.87555 34.1902459,27.07805 C35.349073,28.275675 35.9099,29.7593 35.9099,31.5598 C35.9099,32.86305 35.5947378,34.099675 34.9272405,35.22905" id="Fill-6" fill="#FEFEFE"></path>
                        <polygon id="Fill-8" fill="#FEFEFE" points="37.9826973 45.5348 37.9826973 25.275925 51.4958811 25.275925 51.4958811 28.8753 42.4386054 28.8753 42.4386054 32.828925 47.9854595 32.828925 47.9854595 36.426675 42.4386054 36.426675 42.4386054 41.932175 51.4958811 41.932175 51.4958811 45.5348"></polygon>
                        <polygon id="Fill-10" fill="#FEFEFE" points="65.2026876 45.5348 59.726947 45.5348 52.5315524 25.275925 57.5854605 25.275925 62.5359308 38.721175 67.4831686 25.275925 72.4352551 25.275925"></polygon>
                        <polygon id="Fill-12" fill="#FEFEFE" points="73.4699568 45.5348 73.4699568 25.275925 86.9831405 25.275925 86.9831405 28.8753 77.9274811 28.8753 77.9274811 32.828925 83.4727189 32.828925 83.4727189 36.426675 77.9274811 36.426675 77.9274811 41.932175 86.9831405 41.932175 86.9831405 45.5348"></polygon>
                        <path d="M100.216396,29.864925 C99.6911254,29.40505 99.0236281,29.1938 98.2510768,29.1938 L93.6529416,29.1938 L93.6529416,34.24105 L98.2510768,34.24105 C99.0236281,34.24105 99.6911254,33.992425 100.216396,33.534175 C100.743282,33.0418 101.024504,32.4048 101.024504,31.6638 C101.024504,30.9228 100.743282,30.32155 100.216396,29.864925 M104.602806,35.22905 C103.938542,36.3568 103.060936,37.1693 101.900493,37.697425 L105.587082,45.5348 L100.460444,45.5348 L97.0227524,38.19305 L93.6529416,38.19305 L93.6529416,45.5348 L89.0548065,45.5348 L89.0548065,25.275925 L99.4794011,25.275925 C101.270169,25.275925 102.708601,25.87555 103.867428,27.07805 C105.026255,28.275675 105.587082,29.7593 105.587082,31.5598 C105.587082,32.86305 105.27192,34.099675 104.602806,35.22905" id="Fill-14" fill="#FEFEFE"></path>
                        <path d="M285.153229,34.8938125 C283.322056,35.9370625 281.468256,36.9640625 280.273872,37.8139375 C271.206899,44.3041875 274.061137,51.5825625 274.061137,51.5825625 C275.464013,48.0953125 281.849683,43.3551875 285.42637,40.8575625 C286.404181,40.1701875 287.125013,39.5201875 287.563008,38.9059375 L290.926354,30.7451875 L290.926354,30.7484375 L287.99777,37.8139375 C288.346872,36.5805625 287.383608,35.6591875 285.153229,34.8938125" id="Fill-16" fill="#FEFEFE"></path>
                        <path d="M273.071043,26.2023375 C273.071043,26.1779625 273.071043,26.1503375 273.066195,26.1259625 C273.019324,26.0252125 272.970838,25.9293375 272.9272,25.8237125 C272.980535,25.9504625 273.030638,26.0885875 273.071043,26.2023375" id="Fill-18" fill="#030000"></path>
                        <path d="M297.447005,0.0872875 C291.054843,6.0770375 278.260875,6.2346625 268.862578,8.5161625 C259.577416,10.7700375 260.282086,14.6749125 260.514821,15.4337875 L260.518054,15.4337875 L260.518054,15.4402875 C260.967362,16.6346625 262.512464,17.5267875 265.929145,19.0461625 C267.737691,19.8537875 269.589875,20.5947875 271.429129,21.2854125 C274.404583,20.4534125 278.546945,19.5352875 284.240875,18.3539125 C297.58274,15.5946625 297.447005,0.0872875 297.447005,0.0872875" id="Fill-20" fill="#FEFEFE"></path>
                        <path d="M264.514956,26.1253125 C266.275016,30.1536875 271.711967,31.0409375 284.151983,34.5834375 C284.509167,34.6809375 284.848572,34.7865625 285.154037,34.8938125 C287.840189,33.3679375 290.485935,31.8160625 290.927162,30.7484375 L290.975648,30.6379375 C290.975648,30.6379375 291.386167,27.8088125 285.126562,25.8376875 C280.979351,24.5295625 276.200199,23.0751875 271.429129,21.2860625 C265.744897,22.8671875 264.342021,24.1054375 264.514956,26.1253125" id="Fill-22" fill="#FEFEFE"></path>
                        <path d="M285.153229,34.8938125 C287.383608,35.6591875 288.346872,36.5805625 287.99777,37.8139375 L290.926354,30.7484375 C290.486743,31.8160625 287.839381,33.3679375 285.153229,34.8938125" id="Fill-24" fill="#B2B2B1"></path>
                        <path d="M260.518538,15.4398 C260.541165,15.49505 261.573928,18.28355 262.619619,21.099675 C263.270955,22.848175 263.933603,24.622675 264.378063,25.82355 C264.421701,25.929175 264.466955,26.02505 264.515441,26.1258 C264.34089,24.105925 265.743765,22.867675 271.429614,21.28655 C269.588744,20.5943 267.738176,19.8533 265.92963,19.045675 C262.511333,17.527925 260.96623,16.634175 260.518538,15.4398" id="Fill-26" fill="#B2B2B1"></path>
                        <path d="M177.326071,43.623475 L178.651369,41.683225 C179.103909,42.10735 180.581131,43.41385 183.207482,43.41385 C185.591401,43.41385 187.131655,41.8961 187.131655,40.197975 C187.131655,37.8921 184.870569,36.947975 182.54645,35.797475 C180.06879,34.5836 177.925688,33.2186 177.925688,30.002725 C177.925688,26.66335 180.734671,24.753975 183.902455,24.753975 C186.952255,24.753975 188.607261,25.842725 189.30385,26.39035 L188.039969,28.3956 C187.343379,27.847975 185.95505,27.02735 183.936396,27.02735 C182.000169,27.02735 180.581131,28.120975 180.581131,29.879225 C180.581131,31.8211 182.213509,32.670975 184.232163,33.613475 C186.889223,34.88585 189.848515,36.25085 189.848515,40.136225 C189.848515,43.41385 187.162363,45.687225 183.150915,45.687225 C180.039698,45.687225 178.077612,44.35635 177.326071,43.623475" id="Fill-28" fill="#FEFEFE"></path>
                        <path d="M205.399909,36.1879625 C205.338492,34.2168375 204.464119,32.4602125 202.078584,32.4602125 C199.874065,32.4602125 198.669984,34.0055875 198.306336,36.1879625 L205.399909,36.1879625 Z M195.469876,37.9153375 C195.469876,33.5798375 198.244919,30.3672125 202.136768,30.3672125 C205.820125,30.3672125 207.963228,32.9444625 207.963228,37.0394625 C207.963228,37.4050875 207.932519,37.7690875 207.905044,38.1623375 L198.215828,38.1623375 C198.306336,41.0759625 199.510417,43.5654625 202.618401,43.5654625 C204.616044,43.5654625 205.941341,42.6830875 206.571665,42.3174625 L207.575336,44.2008375 C206.789855,44.7192125 205.184952,45.6860875 202.500417,45.6860875 C197.852179,45.6860875 195.469876,42.3174625 195.469876,37.9153375 L195.469876,37.9153375 Z" id="Fill-30" fill="#FEFEFE"></path>
                        <path d="M209.260564,30.7265 L211.793175,30.7265 L211.793175,32.733375 C212.459056,31.943625 213.755262,30.367375 216.232921,30.367375 C218.312991,30.367375 219.462121,31.42525 219.942137,32.795125 C221.092883,31.5195 222.508689,30.367375 224.621083,30.367375 C227.578759,30.367375 228.727889,32.33525 228.727889,34.94825 L228.727889,45.320625 L226.161337,45.320625 L226.161337,35.463375 C226.161337,33.762 225.647381,32.613125 223.898635,32.613125 C222.237164,32.613125 220.942575,33.939125 220.275078,34.793875 L220.275078,45.320625 L217.710143,45.320625 L217.710143,35.463375 C217.710143,33.705125 217.105678,32.613125 215.50724,32.613125 C213.516062,32.613125 212.097024,34.672 211.793175,35.09775 L211.793175,45.320625 L209.260564,45.320625 L209.260564,30.7265 Z" id="Fill-32" fill="#FEFEFE"></path>
                        <path d="M240.325371,38.0430625 C240.325371,34.8856875 239.14715,32.5798125 236.551506,32.5798125 C234.654069,32.5798125 233.38049,34.0065625 232.990982,34.5249375 L232.990982,42.2599375 C233.627771,42.8319375 234.621744,43.5290625 236.279982,43.5290625 C238.933809,43.5290625 240.325371,41.2573125 240.325371,38.0430625 L240.325371,38.0430625 Z M230.458371,30.7273125 L232.990982,30.7273125 L232.990982,32.2775625 C233.747371,31.3659375 235.103377,30.3665625 237.157588,30.3665625 C240.716496,30.3665625 243.072939,33.1566875 243.072939,37.9829375 C243.072939,42.5946875 240.386788,45.6870625 236.616155,45.6870625 C234.621744,45.6870625 233.532415,44.9314375 232.990982,44.4439375 L232.990982,51.9693125 L230.458371,51.9693125 L230.458371,30.7273125 Z" id="Fill-34" fill="#FEFEFE"></path>
                        <path d="M244.372215,30.7265 L246.90321,30.7265 L246.90321,32.944625 C247.512523,31.943625 248.747312,30.367375 250.738491,30.367375 C251.679129,30.367375 252.157529,30.577 252.366021,30.66475 L251.737312,33.06325 C251.55468,32.973875 251.192648,32.8195 250.40555,32.8195 C248.32548,32.8195 247.147258,35.1595 246.90321,35.645375 L246.90321,45.320625 L244.372215,45.320625 L244.372215,30.7265 Z" id="Fill-36" fill="#FEFEFE"></path>
                        <path d="M261.607706,36.1879625 C261.547906,34.2168375 260.673534,32.4602125 258.291231,32.4602125 C256.081863,32.4602125 254.87455,34.0055875 254.510901,36.1879625 L261.607706,36.1879625 Z M251.677674,37.9153375 C251.677674,33.5798375 254.451101,30.3672125 258.344566,30.3672125 C262.029539,30.3672125 264.171025,32.9444625 264.171025,37.0394625 C264.171025,37.4050875 264.140317,37.7690875 264.114458,38.1623375 L254.423625,38.1623375 C254.510901,41.0759625 255.718215,43.5654625 258.829431,43.5654625 C260.818993,43.5654625 262.149139,42.6830875 262.782696,42.3174625 L263.781517,44.2008375 C262.996036,44.7192125 261.395982,45.6860875 258.711447,45.6860875 C254.058361,45.6860875 251.677674,42.3174625 251.677674,37.9153375 L251.677674,37.9153375 Z" id="Fill-38" fill="#FEFEFE"></path>
                        <path d="M191.584654,45.320625 L194.180297,45.320625 L194.180297,30.7265 L191.584654,30.7265 L191.584654,45.320625 Z M191.099789,26.356875 C191.099789,25.359125 191.88527,24.571 192.880859,24.571 C193.874832,24.571 194.66193,25.359125 194.66193,26.356875 C194.66193,27.33025 193.874832,28.14925 192.880859,28.14925 C191.88527,28.14925 191.099789,27.33025 191.099789,26.356875 L191.099789,26.356875 Z" id="Fill-40" fill="#FEFEFE"></path>
                        <path d="M166.39447,62.3982375 C166.229616,62.3982375 166.098702,62.2649875 166.098702,62.1008625 L166.098702,8.7244875 C166.098702,8.5603625 166.229616,8.4271125 166.39447,8.4271125 C166.557708,8.4271125 166.690237,8.5603625 166.690237,8.7244875 L166.690237,62.1008625 C166.690237,62.2649875 166.557708,62.3982375 166.39447,62.3982375" id="Fill-42" fill="#FEFEFE"></path>
                    </g>
                </g>
            </g>
        </g>
    </g>
</svg>